<svg width="32" height="32" viewBox="0 0 32 32" fill="none" xmlns="http://www.w3.org/2000/svg">
<g clip-path="url(#clip0_18_137)">
<path d="M27.5921 17.2805C27.7684 16.7263 27.8692 16.1342 27.8692 15.5233C27.8692 12.3425 25.2868 9.76018 22.1061 9.76018C21.1928 9.76018 20.3362 9.97432 19.5678 10.3459C18.5601 7.80136 16.0785 6 13.1749 6C9.37694 6 6.297 9.07994 6.297 12.8716C6.297 13.5329 6.39148 14.1691 6.56153 14.7737C3.47529 14.8871 1 17.4254 1 20.5431C1 23.7301 3.58237 26.3125 6.76938 26.3125H26.6662C29.1856 26.3125 31.2326 24.2718 31.2326 21.7461C31.2326 19.5417 29.6706 17.7025 27.5921 17.2805Z" fill="#F5AC56"/>
</g>
<defs>
<clipPath id="clip0_18_137">
<rect width="30.2326" height="20.3125" fill="white" transform="translate(1 6)"/>
</clipPath>
</defs>
</svg>
